<svg height="512" viewBox="0 0 512 512" width="512" xmlns="http://www.w3.org/2000/svg"><g id="filled_outline" data-name="filled outline"><circle cx="256" cy="256" fill="#c7830b" r="232"/><circle cx="256" cy="256" fill="#ee9d0d" r="200"/><path d="m390.86 403.68a199.968 199.968 0 0 1 -269.72 0 89.993 89.993 0 0 1 51.62-67.66l32.26-14.67a96 96 0 1 1 101.96 0l32.26 14.67a89.993 89.993 0 0 1 51.62 67.66z" fill="#ee9d0d"/><path d="m390.86 403.68a199.968 199.968 0 0 1 -269.72 0 89.993 89.993 0 0 1 51.62-67.66l32.26-14.67a96 96 0 1 1 101.96 0l32.26 14.67a89.993 89.993 0 0 1 51.62 67.66z" fill="#007af6"/><path d="m256 16a240 240 0 0 0 -169.706 409.705 240 240 0 1 0 339.412-339.405 238.433 238.433 0 0 0 -169.706-70.3zm158.392 398.392a224 224 0 0 1 -316.784-316.784 224 224 0 0 1 316.784 316.784z"/><path d="m256 48c-114.691 0-208 93.309-208 208s93.309 208 208 208 208-93.309 208-208-93.309-208-208-208zm0 400a191.191 191.191 0 0 1 -126.143-47.376 81.831 81.831 0 0 1 46.211-57.324l32.265-14.666a8 8 0 0 0 .943-14.059 88 88 0 1 1 93.448 0 8 8 0 0 0 .943 14.059l32.265 14.666a82.083 82.083 0 0 1 46.214 57.319 191.193 191.193 0 0 1 -126.146 47.381zm139.306-60.01a98.13 98.13 0 0 0 -52.753-59.254l-19.775-8.988a104 104 0 1 0 -133.556 0l-19.775 8.988a97.8 97.8 0 0 0 -52.756 59.251 191.318 191.318 0 0 1 -52.691-131.987c0-105.869 86.131-192 192-192s192 86.131 192 192a191.315 191.315 0 0 1 -52.694 131.99z"/><path d="m405.1 333.9a7.993 7.993 0 0 0 10.625-3.889c1.06-2.285 2.085-4.626 3.046-6.957a8 8 0 0 0 -14.792-6.1c-.873 2.119-1.8 4.245-2.768 6.322a8 8 0 0 0 3.889 10.624z"/><path d="m416 256a161.446 161.446 0 0 1 -2.9 30.485 8 8 0 1 0 15.711 3.03 177.5 177.5 0 0 0 3.189-33.515 175.565 175.565 0 0 0 -10.017-58.666 8 8 0 1 0 -15.085 5.332 159.634 159.634 0 0 1 9.102 53.334z"/><circle cx="256" cy="108" r="12"/><circle cx="294" cy="108" r="10"/><circle cx="218" cy="108" r="10"/><circle cx="228" cy="228" r="12"/><circle cx="284" cy="228" r="12"/><path d="m274.343 266.343a25.969 25.969 0 0 1 -36.686 0 8 8 0 0 0 -11.314 11.314 41.988 41.988 0 0 0 59.314 0 8 8 0 0 0 -11.314-11.314z"/></g></svg>