<svg height="384pt" viewBox="0 0 384.06718 384" width="384pt" xmlns="http://www.w3.org/2000/svg"><path d="m266.105469 32.332031c-25.359375-11.679687-52.960938-17.039062-80.320313-16.160156-42.878906 1.523437-85.441406 18.640625-118.238281 51.441406-32.800781 32.800781-49.921875 75.359375-51.441406 118.242188-.878907 27.359375 4.480469 54.957031 16.160156 80.316406 8.480469 18.242187 20.238281 35.363281 35.28125 50.402344 35.917969 35.917969 83.597656 53.121093 130.71875 51.441406 42.878906-1.523437 85.4375-18.640625 118.238281-51.441406 32.800782-32.800781 49.921875-75.359375 51.441406-118.242188 1.679688-47.117187-15.519531-94.796875-51.441406-130.71875-15.039062-15.039062-32.160156-26.800781-50.398437-35.28125zm0 0" fill="#cce4ff"/><path d="m282.945312 23.046875-10.121093-5.265625c-4.617188-2.128906-9.34375-4-14.121094-5.75-23.375-8.585938-48.484375-12.738281-73.46875-11.890625-.007813 0-.015625 0-.027344 0l-14.902343 1.234375c-43.054688 4.894531-83.113282 24-114.046876 54.917969-30.914062 30.921875-50.023437 70.976562-54.921874 114.050781l-1.230469 14.964844c-.1289065 3.761718-.136719 7.527344-.0390628 11.289062.1015628 4.097656.3671878 8.175782.7265628 12.257813 1.96875 22.132812 7.6875 43.917969 16.953125 64.015625v.007812c.007812.015625.015625.03125.023437.046875.007813.007813.007813.023438.015625.03125l5.222656 10.03125c8.855469 16.410157 19.921876 31.511719 33.257813 44.847657 8.992187 8.992187 18.816406 17.011718 29.28125 23.96875 31.382813 20.875 68.582031 32.289062 106.644531 32.289062h.007813c2.203125 0 4.417969-.03125 6.617187-.113281h.007813l14.914062-1.230469c43.054688-4.886719 83.117188-24 114.054688-54.921875 30.921875-30.925781 50.023437-70.980469 54.921875-114.054687l1.238281-14.9375c1.839844-53.054688-18.625-105.007813-56.160156-142.535157-13.328125-13.335937-28.425781-24.390625-44.847657-33.253906zm32.671876 67.480469c1.078124 1.308594 2.039062 2.710937 3.070312 4.054687 2.128906 2.769531 4.226562 5.558594 6.160156 8.457031 1.113282 1.65625 2.121094 3.375 3.160156 5.070313 1.671876 2.710937 3.296876 5.441406 4.800782 8.25.992187 1.847656 1.914062 3.71875 2.832031 5.597656 1.351563 2.785157 2.640625 5.59375 3.832031 8.449219.816406 1.945312 1.601563 3.894531 2.335938 5.871094 1.089844 2.921875 2.0625 5.886718 2.984375 8.871094.609375 1.960937 1.222656 3.921874 1.761719 5.90625.847656 3.183593 1.535156 6.40625 2.183593 9.640624.367188 1.832032.808594 3.648438 1.109375 5.496094.65625 3.957032 1.097656 7.949219 1.449219 11.957032.105469 1.152343.304687 2.289062.375 3.449218.007813.160156 0 .320313.007813.480469-37.335938-2.398437-72.964844-18.015625-100.222657-43.945313 13.246094-25.070312 22.503907-52.320312 27.398438-80.320312 9.410156 6.113281 18.257812 13.097656 26.304687 21.136719 3.703125 3.671875 7.167969 7.5625 10.457032 11.578125zm-113.601563-58.105469c.3125.023437.625.03125.929687.046875 2.03125.144531 4.039063.449219 6.0625.671875 2.625.28125 5.25.496094 7.855469.90625.410157.0625.816407.144531 1.226563.207031 2.015625.328125 3.992187.816406 5.992187 1.222656 2.832031.578126 5.671875 1.113282 8.472657 1.832032 2.117187.554687 4.199218 1.257812 6.292968 1.898437 2.839844.863281 5.6875 1.710938 8.472656 2.726563.550782.199218 1.074219.449218 1.625.65625-3.152343 23.785156-9.914062 47.128906-19.929687 68.910156-15.871094-23.496094-25.230469-50.613281-27-79.078125zm-123.132813 46.503906c24.855469-24.847656 56.765626-40.582031 91.15625-45.335937 2.304688 39.878906 16.859376 77.648437 41.84375 108.6875-6.097656 9.328125-12.816406 18.304687-20.242187 26.769531l-78.808594-78.808594-22.625 22.625 78.808594 78.804688c-8.46875 7.425781-17.4375 14.144531-26.78125 20.25-31.144531-25.023438-68.890625-39.542969-108.671875-41.847657 4.75-34.390624 20.476562-66.304687 45.320312-91.144531zm-36.328124 170.046875c-.203126-.535156-.449219-1.054687-.648438-1.597656-1.042969-2.855469-1.914062-5.777344-2.792969-8.6875-.609375-2-1.28125-3.976562-1.808593-6-.824219-3.175781-1.449219-6.402344-2.078126-9.617188-.304687-1.542968-.679687-3.074218-.945312-4.625-.082031-.464843-.167969-.925781-.242188-1.390624-.605468-3.855469-1.015624-7.746094-1.34375-11.640626-.0625-.761718-.199218-1.519531-.246093-2.28125-.023438-.359374-.039063-.71875-.054688-1.078124 28.414063 1.773437 55.511719 11.109374 79.054688 27-21.777344 10.007812-45.121094 16.765624-68.894531 19.917968zm15.191406 29.929688c28.007812-4.898438 55.269531-14.152344 80.328125-27.390625 25.925781 27.230469 41.542969 62.871093 43.941406 100.222656-.160156-.007813-.320313 0-.480469-.007813-1.15625-.082031-2.292968-.28125-3.453125-.375-4-.355468-7.984375-.792968-11.9375-1.449218-1.878906-.3125-3.726562-.753906-5.597656-1.136719-3.195313-.648437-6.371094-1.320313-9.515625-2.160156-2.039062-.542969-4.046875-1.183594-6.054688-1.800781-2.917968-.902344-5.816406-1.855469-8.671874-2.917969-2.03125-.761719-4.046876-1.570313-6.054688-2.410157-2.785156-1.167968-5.527344-2.414062-8.242188-3.734374-1.941406-.945313-3.878906-1.894532-5.773437-2.921876-2.738281-1.46875-5.410156-3.0625-8.058594-4.695312-1.75-1.070312-3.519531-2.121094-5.222656-3.253906-2.847656-1.90625-5.601563-3.976563-8.328125-6.074219-1.382812-1.054687-2.808594-2.039063-4.160156-3.144531-4.007813-3.285156-7.894532-6.75-11.59375-10.4375-8.03125-8.058594-15.023438-16.914063-21.125-26.3125zm247.421875 26.304687c-24.855469 24.847657-56.78125 40.589844-91.191407 45.335938-2.566406-42.816407-19.488281-83.882813-47.953124-116.050781 8.90625-6.183594 17.488281-12.894532 25.65625-20.160157l79.554687 79.554688 22.621094-22.625-79.550781-79.550781c7.273437-8.167969 13.984374-16.753907 20.167968-25.65625 32.175782 28.472656 73.230469 45.390624 116.039063 47.949218-4.757813 34.417969-20.496094 66.347656-45.34375 91.203125zm0 0" fill="#007aff"/></svg>