<svg height="500pt" viewBox="-48 0 500 500.4" width="500pt" xmlns="http://www.w3.org/2000/svg"><path d="m252.160156 261.058594c48.804688-11.898438 99.785156 8.457031 126.976563 50.699218 27.1875 42.238282 24.601562 97.074219-6.4375 136.570313-31.042969 39.492187-83.710938 54.964844-131.179688 38.527344-47.46875-16.433594-79.296875-61.160157-79.269531-111.394531-.328125-54.417969 36.957031-101.859376 89.910156-114.402344zm86.050782 174.589844v-57.75c0-11.042969-8.957032-20-20-20h-.582032v-20.6875c.003906-10.277344-4.054687-20.140626-11.289062-27.441407-7.152344-7.289062-16.929688-11.402343-27.140625-11.417969-21.34375.113282-38.550781 17.515626-38.429688 38.859376v20.6875h-.578125c-11.046875 0-20 8.957031-20 20v57.75c.003906 11.046874 8.953125 19.996093 20 20h78.019532c11.042968-.003907 19.996093-8.953126 20-20zm0 0" fill="#00efd1"/><path d="m278.199219 416.660156c.261719.027344.527343.042969.789062.039063 5.121094.042969 9.335938-4.011719 9.488281-9.132813.152344-5.117187-3.816406-9.417968-8.929687-9.675781s-9.496094 3.617187-9.863281 8.726563c-.367188 5.105468 3.417968 9.570312 8.515625 10.042968zm60.011719-38.761718v57.75c-.003907 11.046874-8.957032 19.996093-20 20h-78.019532c-11.046875-.003907-19.996094-8.953126-20-20v-57.75c0-11.042969 8.953125-20 20-20h78.019532c11.042968 0 20 8.957031 20 20zm0 0" fill="#fedb41"/><path d="m317.628906 356.828125v1.070313h-76.859375v-20.6875c-.121093-21.34375 17.085938-38.746094 38.429688-38.859376 10.210937.015626 19.988281 4.128907 27.140625 11.417969 7.234375 7.300781 11.292968 17.164063 11.289062 27.441407zm0 0" fill="#00efd1"/><path d="m278.199219 416.660156c-5.007813-.46875-8.722657-4.855468-8.359375-9.871094.359375-5.019531 4.667968-8.828124 9.691406-8.574218s8.921875 4.480468 8.773438 9.507812c-.144532 5.027344-4.285157 9.015625-9.316407 8.976563-.261719.003906-.527343-.011719-.789062-.039063zm0 0" fill="#fedb41"/><path d="m149.171875 178.289062c49.472656.078126 92.265625 34.472657 102.988281 82.769532-61.324218 14.953125-99.972656 75.578125-87.640625 137.480468h-157.800781v-114.777343c.101562-58.351563 47.480469-105.570313 105.832031-105.472657zm0 0" fill="#00acea"/><path d="m202.488281 78.640625v.039063c0 39.625-32.113281 71.753906-71.738281 71.769531h-.058594c-39.640625.011719-71.789062-32.109375-71.8125-71.75v-.097657c.003906-39.625 32.117188-71.753906 71.742188-71.773437h.109375c39.625 0 71.75 32.117187 71.757812 71.742187zm0 0" fill="#00acea"/><g fill="#083863"><path d="m6.71875 406h152.195312c13.648438 55 63.65625 94.398438 121.046876 94.398438 68.769531 0 124.71875-56.058594 124.71875-124.824219s-55.949219-124.773438-124.71875-124.773438c-7.613282-.011719-15.210938.671875-22.699219 2.046875-13.808594-48.292968-57.863281-81.652344-108.089844-81.847656h-36.800781c-62.027344 0-112.171875 50.699219-112.171875 112.761719v114.777343c0 3.867188 2.65625 7.460938 6.519531 7.460938zm383.960938-30.539062c0 61.144531-49.570313 110.714843-110.714844 110.714843-61.144532 0-110.714844-49.570312-110.714844-110.714843-.097656-25.0625 8.402344-49.398438 24.082031-68.949219 15.332031-19.210938 36.597657-32.804688 60.472657-38.648438h.019531c33.003906-8 67.855469-.421875 94.554687 20.570313 26.695313 20.988281 42.289063 53.066406 42.300782 87.027344zm-376.480469-91.6875c0-54.339844 43.847656-98.773438 98.179687-98.773438h36.78125c43.753906.183594 82.1875 29.097656 94.5 71.085938-24.152344 7.402343-45.507812 21.925781-61.269531 41.664062-17.671875 22.117188-27.246094 49.613281-27.136719 77.921875.023438 5.457031.367188 10.910156 1.035156 16.328125h-142.089843zm0 0"/><path d="m130.671875 157h.082031c20.800782.058594 40.769532-8.167969 55.488282-22.867188 14.722656-14.695312 22.984374-34.652343 22.957031-55.453124v-.113282c.03125-20.828125-8.222657-40.816406-22.941407-55.554687-14.722656-14.738281-34.699218-23.01562525-55.527343-23.011719h-.113281c-20.828126.00390625-40.796876 8.292969-55.507813 23.039062-14.710937 14.742188-22.953125 34.734376-22.910156 55.5625v.097657c-.023438 20.804687 8.242187 40.761719 22.96875 55.453125 14.726562 14.695312 34.699219 22.917968 55.503906 22.847656zm-.050781-143.171875v-7l.113281 7c35.738281.042969 64.707031 29.003906 64.757813 64.742187h7l-7-.113281c-.058594 35.699219-29.042969 64.59375-64.742188 64.542969h-.078125c-35.667969.011719-64.597656-28.890625-64.609375-64.558594-.011719-35.671875 28.890625-64.597656 64.558594-64.613281zm0 0"/><path d="m234.199219 337.210938v14.464843c-12.207031 2.859375-20.878907 13.6875-21 26.222657v57.75c0 14.890624 12.101562 27.351562 26.992187 27.351562h78.019532c14.890624 0 26.988281-12.460938 26.988281-27.351562v-57.75c-.121094-12.535157-8.792969-23.363282-21-26.222657v-14.464843c.105469-12.101563-4.609375-23.742188-13.097657-32.363282-8.328124-8.628906-19.804687-13.503906-31.796874-13.5-25.046876.003906-45.105469 20.574219-45.105469 45.863282zm97 98.789062c0 7.179688-5.820313 13-13 13h-78c-7.179688 0-13-5.820312-13-13v-58c0-7.179688 5.820312-13 13-13h78c7.179687 0 13 5.820312 13 13zm-51.785157-130.648438c8.25.003907 16.136719 3.378907 21.839844 9.339844 5.863282 6.015625 9.082032 14.121094 8.945313 22.519532v13.789062h-62v-13.789062c0-17.566407 13.886719-31.859376 31.214843-31.859376zm0 0"/><path d="m278.988281 391.050781c-7.460937-.011719-13.980469 5.046875-15.820312 12.28125-1.839844 7.234375 1.46875 14.792969 8.03125 18.347657v9.320312c0 3.867188 3.136719 7 7 7 3.867187 0 7-3.132812 7-7v-8.535156c7.207031-2.964844 11.3125-10.613282 9.800781-18.257813s-8.214844-13.15625-16.011719-13.15625zm0 14c1.027344.003907 1.925781.675781 2.222657 1.65625.296874.980469-.085938 2.039063-.9375 2.605469-.671876-.207031-1.371094-.3125-2.074219-.3125-.269531 0-.539063.019531-.804688.050781-.464843-.433593-.730469-1.035156-.734375-1.671875 0-1.285156 1.042969-2.328125 2.328125-2.328125zm0 0"/></g></svg>